<?xml version="1.0" encoding="UTF-8"?>
<svg width="511px" height="102px" viewBox="0 0 511 102" version="1.1" xmlns="http://www.w3.org/2000/svg" xmlns:xlink="http://www.w3.org/1999/xlink">
    <!-- Generator: Sketch 46.2 (44496) - http://www.bohemiancoding.com/sketch -->
    <title>Page 1</title>
    <desc>Created with Sketch.</desc>
    <defs></defs>
    <g id="Page-1" stroke="none" stroke-width="1" fill="none" fill-rule="evenodd">
        <g id="Artboard" transform="translate(-29.000000, -88.000000)">
            <g id="Page-1" transform="translate(29.000000, 87.000000)">
                <g id="Group-36" transform="translate(0.000000, 1.640625)">
                    <path d="M250.013258,78.6415254 C248.755268,78.6415254 247.749986,79.9946214 247.749986,81.7285712 C247.749986,82.7433932 248.108845,84.0129062 248.900238,85.3660022 C251.343337,84.2242289 252.241674,82.7008132 252.241674,81.3059259 C252.241674,79.8250901 251.307688,78.6415254 250.013258,78.6415254 L250.013258,78.6415254 Z M247.138419,89.5530298 C245.664955,90.2721577 244.658088,91.7529935 244.658088,93.4443634 C244.658088,95.4747958 245.988166,96.8278917 247.929019,96.8278917 C249.151361,96.8278917 250.408558,96.1513437 251.6309,95.1365218 C249.869873,93.1904608 248.359968,91.3295596 247.138419,89.5530298 L247.138419,89.5530298 Z M260.149265,90.3557406 C259.035453,92.0061076 257.8852,93.6123176 256.698507,95.0513619 C257.597637,95.981024 258.603712,96.9958459 259.646227,97.969665 L257.273633,100.930548 C256.196262,99.8731461 255.046009,98.8149557 254.075583,97.8001337 C252.133937,99.5766635 249.97761,100.718437 247.605808,100.718437 C243.903135,100.718437 240.596555,98.2235676 240.596555,93.698266 C240.596555,90.6948031 242.537409,88.1565654 245.41304,86.6347267 C244.479054,84.8999884 243.975224,83.2511984 243.975224,81.8129426 C243.975224,78.0919288 246.778767,75.0040945 250.013258,75.0040945 C253.64305,75.0040945 255.764521,78.0485603 255.764521,80.9676519 C255.764521,83.6746323 254.254616,86.3390327 250.553528,87.9460312 C251.523163,89.2999157 252.781152,90.8635458 254.290265,92.4713328 C255.511814,91.0764455 256.62721,89.4678699 257.633285,87.9034513 L260.149265,90.3557406 Z" id="Fill-7" fill="#000000"></path>
                    <polygon id="Fill-1" fill="#000000" points="59.8407016 69.2947551 59.8407016 82.2359033 47.7289857 82.2359033 47.7289857 69.2947551 43.2365048 69.2947551 43.2365048 100.296107 47.7289857 100.296107 47.7289857 86.9725276 59.8407016 86.9725276 59.8407016 100.296107 64.3339747 100.296107 64.3339747 69.2947551"></polygon>
                    <polygon id="Fill-2" fill="#000000" points="77.5614832 69.2947551 77.5614832 100.296107 93.6277865 100.296107 93.6277865 95.4743227 82.0539641 95.4743227 82.0539641 86.8889448 92.51239 86.8889448 92.51239 82.2359033 82.0539641 82.2359033 82.0539641 74.1157507 93.6277865 74.1157507 93.6277865 69.2947551"></polygon>
                    <path d="M115.551901,68.8710847 L103.403745,100.29587 L108.040404,100.29587 L110.592824,93.1905396 L121.015601,93.1905396 L123.567229,100.29587 L128.311625,100.29587 L116.199117,68.8710847 L115.551901,68.8710847 Z M115.803816,78.6416043 L119.541345,89.0027235 L112.066288,89.0027235 L115.803816,78.6416043 Z" id="Fill-3" fill="#000000"></path>
                    <polygon id="Fill-4" fill="#000000" points="138.555052 69.2947551 138.555052 100.296107 154.621355 100.296107 154.621355 95.4743227 143.047533 95.4743227 143.047533 69.2947551"></polygon>
                    <polygon id="Fill-5" fill="#000000" points="159.69023 69.2947551 159.69023 74.1157507 168.064417 74.1157507 168.064417 100.296107 172.556898 100.296107 172.556898 74.1157507 180.895437 74.1157507 180.895437 69.2947551"></polygon>
                    <polygon id="Fill-6" fill="#000000" points="208.750878 69.2947551 208.750878 82.2359033 196.639162 82.2359033 196.639162 69.2947551 192.146681 69.2947551 192.146681 100.296107 196.639162 100.296107 196.639162 86.9725276 208.750878 86.9725276 208.750878 100.296107 213.244151 100.296107 213.244151 69.2947551"></polygon>
                    <polygon id="Fill-10" fill="#000000" points="291.562726 74.1152776 291.562726 83.1666693 301.733588 83.1666693 301.733588 87.8615022 291.562726 87.8615022 291.562726 100.295634 287.070245 100.295634 287.070245 69.2950705 303.135756 69.2950705 303.135756 74.1152776"></polygon>
                    <polygon id="Fill-12" fill="#000000" points="314.674088 100.295476 319.166569 100.295476 319.166569 69.2949128 314.674088 69.2949128"></polygon>
                    <polygon id="Fill-14" fill="#000000" points="343.463278 74.1152776 343.463278 100.295634 338.970797 100.295634 338.970797 74.1152776 330.59661 74.1152776 330.59661 69.2950705 351.801025 69.2950705 351.801025 74.1152776"></polygon>
                    <polygon id="Fill-15" fill="#000000" points="384.041844 100.887889 367.545384 80.4171879 367.545384 100.295713 363.052903 100.295713 363.052903 68.870927 363.771415 68.7021842 380.0524 88.876403 380.0524 69.2951493 384.545674 69.2951493 384.545674 100.760938"></polygon>
                    <polygon id="Fill-16" fill="#000000" points="397.772786 100.295713 397.772786 69.2951493 413.839089 69.2951493 413.839089 74.1153565 402.266059 74.1153565 402.266059 82.2362976 412.724485 82.2362976 412.724485 86.8885505 402.266059 86.8885505 402.266059 95.4747169 413.839089 95.4747169 413.839089 100.295713"></polygon>
                    <path d="M432.88884,100.803202 C429.90468,100.803202 426.922103,99.5352664 424.621598,97.757948 L426.167943,93.0213238 C428.25139,94.7978536 430.768161,95.8970469 433.032226,95.8970469 C435.80012,95.8970469 437.021669,93.9935658 437.021669,91.8369706 C437.021669,89.6803754 436.231069,88.3264909 432.061007,86.2542671 C427.460789,83.9707206 425.808291,81.1785803 425.808291,77.4575665 C425.808291,72.9732678 428.971486,68.7862402 434.470041,68.7862402 C437.021669,68.7862402 439.538441,69.8026392 441.083202,71.0279953 L439.645386,75.6802482 C438.244011,74.5384749 436.15898,73.4818616 434.361512,73.4818616 C431.59441,73.4818616 430.29998,75.2583914 430.29998,77.3298267 C430.29998,79.4020505 431.59441,80.6289836 434.865342,82.3211421 C440.076334,84.9855425 441.586239,87.4804117 441.586239,91.540488 C441.586239,96.5318034 438.316099,100.803202 432.88884,100.803202" id="Fill-17" fill="#000000"></path>
                    <path d="M459.665326,100.803202 C456.681957,100.803202 453.699381,99.5352664 451.398876,97.757948 L452.944429,93.0213238 C455.028667,94.7978536 457.544647,95.8970469 459.809504,95.8970469 C462.576606,95.8970469 463.798947,93.9935658 463.798947,91.8369706 C463.798947,89.6803754 463.007554,88.3264909 458.838285,86.2542671 C454.237274,83.9707206 452.584777,81.1785803 452.584777,77.4575665 C452.584777,72.9732678 455.747971,68.7862402 461.246527,68.7862402 C463.798947,68.7862402 466.314926,69.8026392 467.859687,71.0279953 L466.421871,75.6802482 C465.020496,74.5384749 462.935465,73.4818616 461.137998,73.4818616 C458.371688,73.4818616 457.077258,75.2583914 457.077258,77.3298267 C457.077258,79.4020505 458.371688,80.6289836 461.641827,82.3211421 C466.853612,84.9855425 468.362725,87.4804117 468.362725,91.540488 C468.362725,96.5318034 465.092585,100.803202 459.665326,100.803202" id="Fill-18" fill="#000000"></path>
                    <polygon id="Fill-19" fill="#FFFFFF" points="28.9538059 49.9384655 8.51622603 26.069254 8.51622603 49.9384655 0.000237655489 49.9384655 0.000237655489 0.232691497 8.51622603 0.232691497 8.51622603 22.6108165 28.1362711 0.232691497 38.423585 0.232691497 16.6226548 24.101903 39.5136315 49.9384655"></polygon>
                    <polygon id="Fill-20" fill="#FFFFFF" points="47.8535172 49.9991025 56.3695055 49.9991025 56.3695055 0.293328488 47.8535172 0.293328488"></polygon>
                    <polygon id="Fill-21" fill="#FFFFFF" points="105.216343 49.9692177 74.6807818 17.8253041 74.699002 49.9282148 66.2234151 49.9282148 66.1275607 0.281579578 67.640634 0.276848474 98.3552295 31.4098826 98.4566291 0.277636991 106.6399 0.245307776 106.805466 49.9581784"></polygon>
                    <polygon id="Fill-22" fill="#FFFFFF" points="198.694565 7.96300109 198.694565 49.9381501 190.178577 49.9381501 190.178577 7.96300109 174.305567 7.96300109 174.305567 0.23237609 214.499448 0.23237609 214.499448 7.96300109"></polygon>
                    <polygon id="Fill-23" fill="#FFFFFF" points="254.712975 49.9384655 254.712975 28.577528 231.754662 28.577528 231.754662 49.9384655 223.238674 49.9384655 223.238674 0.232691497 231.754662 0.232691497 231.754662 20.982528 254.712975 20.982528 254.712975 0.232691497 263.228963 0.232691497 263.228963 49.9384655"></polygon>
                    <polygon id="Fill-24" fill="#FFFFFF" points="276.505824 49.9384655 276.505824 0.232691497 285.021813 0.232691497 285.021813 42.2078405 306.958207 42.2078405 306.958207 49.9384655"></polygon>
                    <polygon id="Fill-25" fill="#FFFFFF" points="318.388723 49.9384655 318.388723 0.232691497 348.841105 0.232691497 348.841105 7.9633165 326.904711 7.9633165 326.904711 20.982528 346.72914 20.982528 346.72914 28.441903 326.904711 28.441903 326.904711 42.2078405 348.841105 42.2078405 348.841105 49.9384655"></polygon>
                    <polygon id="Fill-26" fill="#FFFFFF" points="383.459271 7.96300109 383.459271 49.9381501 374.943283 49.9381501 374.943283 7.96300109 359.070273 7.96300109 359.070273 0.23237609 399.264153 0.23237609 399.264153 7.96300109"></polygon>
                    <polygon id="Fill-27" fill="#FFFFFF" points="408.343623 49.9383866 416.859611 49.9383866 416.859611 0.232612645 408.343623 0.232612645"></polygon>
                    <path d="M454.94937,51.4669277 C439.144487,51.4669277 428.038846,40.5909066 428.038846,25.7722983 C428.038846,11.0222911 439.280743,0.0106449855 454.94937,0.0106449855 C461.149009,0.0106449855 466.803625,1.98193859 471.027556,4.56512173 L468.098056,11.7698056 C464.146637,9.52726199 459.241428,7.9636319 454.813114,7.9636319 C443.844521,7.9636319 437.168778,15.2369168 437.168778,25.7722983 C437.168778,36.2406559 444.048904,43.5131523 455.017497,43.5131523 C459.445811,43.5131523 464.623532,41.9503107 468.643079,39.5713536 L471.231939,46.7760374 C467.076137,49.4270331 461.149009,51.4669277 454.94937,51.4669277" id="Fill-28" fill="#FFFFFF"></path>
                    <path d="M494.205066,50.0170018 C488.550449,50.0170018 482.896625,48.0551704 478.536439,45.3079757 L481.465147,37.9842257 C485.416566,40.7314204 490.185519,42.431464 494.477577,42.431464 C499.723426,42.431464 502.039775,39.4887169 502.039775,36.1532882 C502.039775,32.8186479 500.540961,30.7259226 492.638124,27.5229648 C483.918544,23.9911951 480.78466,19.6756392 480.78466,13.9218274 C480.78466,6.98997057 486.779124,0.517030887 497.202694,0.517030887 C502.039775,0.517030887 506.807936,2.0861806 509.737436,3.98177653 L507.013112,11.1746326 C504.355332,9.40914208 500.404705,7.77533394 496.99831,7.77533394 C491.752461,7.77533394 489.299856,10.5209517 489.299856,13.7254866 C489.299856,16.9292329 491.752461,18.8256174 497.951308,21.4411297 C507.829855,25.5603448 510.692019,29.4185607 510.692019,35.695948 C510.692019,43.4115912 504.491587,50.0170018 494.205066,50.0170018" id="Fill-29" fill="#FFFFFF"></path>
                    <polygon id="Fill-30" fill="#FFFFFF" points="154.24784 0.280317951 152.399672 0.274798328 129.686937 49.987669 138.475437 49.987669 143.311726 38.595169 146.120814 31.8817315 153.190273 15.2684575 160.220914 31.7524146 163.049015 38.595169 167.905901 49.987669 176.898784 49.987669"></polygon>
                </g>
            </g>
        </g>
    </g>
</svg>