<?xml version="1.0" encoding="UTF-8"?>
<svg width="270px" height="105px" viewBox="0 0 270 105" version="1.1" xmlns="http://www.w3.org/2000/svg" xmlns:xlink="http://www.w3.org/1999/xlink">
    <!-- Generator: Sketch 46.2 (44496) - http://www.bohemiancoding.com/sketch -->
    <title>Logo</title>
    <desc>Created with Sketch.</desc>
    <defs></defs>
    <g id="Page-1" stroke="none" stroke-width="1" fill="none" fill-rule="evenodd">
        <g id="Artboard" transform="translate(-76.000000, -74.000000)" fill="#FFFFFF">
            <g id="Logo" transform="translate(76.000000, 74.000000)">
                <g id="Group-44">
                    <polygon id="Fill-39" points="46.7662279 104.0625 46.6622283 21.5364876 53.737033 21.5301724 53.8410326 104.056759"></polygon>
                    <polygon id="Fill-40" points="28.7195221 96.8857759 28.7152174 32.2958565 35.889717 32.2952586 35.8940217 96.8857759"></polygon>
                    <polygon id="Fill-41" points="229.726044 96.8857759 229.721739 32.2958565 236.896239 32.2952586 236.900543 96.8857759"></polygon>
                    <polygon id="Fill-42" points="215.468827 104.0625 215.36413 21.5364876 222.438238 21.5301724 222.542935 104.056759"></polygon>
                    <polygon id="Fill-43" points="177.685774 68.1788793 166.574193 47.8825541 159.926804 58.108382 135.237981 12.3207228 116.787521 47.4732611 109.504445 34.7509233 90.7203215 67.8150633 0.00460225985 67.8924333 0 61.9863296 87.4141731 61.9119127 109.486036 23.0609723 116.570064 35.4366219 135.169522 0 160.385304 46.7639381 166.994149 36.5965807 181.051177 62.2721851 269.204012 62.2580104 269.205163 68.1641141"></polygon>
                </g>
            </g>
        </g>
    </g>
</svg>