<?xml version="1.0" encoding="UTF-8"?>
<svg width="508px" height="508px" viewBox="0 0 508 508" version="1.1" xmlns="http://www.w3.org/2000/svg" xmlns:xlink="http://www.w3.org/1999/xlink">
    <!-- Generator: Sketch 46.2 (44496) - http://www.bohemiancoding.com/sketch -->
    <title>Page 1</title>
    <desc>Created with Sketch.</desc>
    <defs>
        <circle id="path-1" cx="250" cy="250" r="250"></circle>
        <filter x="-1.4%" y="-1.0%" width="102.9%" height="102.9%" filterUnits="objectBoundingBox" id="filter-2">
            <feOffset dx="0" dy="2.5" in="SourceAlpha" result="shadowOffsetOuter1"></feOffset>
            <feGaussianBlur stdDeviation="2" in="shadowOffsetOuter1" result="shadowBlurOuter1"></feGaussianBlur>
            <feColorMatrix values="0 0 0 0 0   0 0 0 0 0   0 0 0 0 0  0 0 0 0.5 0" type="matrix" in="shadowBlurOuter1"></feColorMatrix>
        </filter>
    </defs>
    <g id="Page-1" stroke="none" stroke-width="1" fill="none" fill-rule="evenodd">
        <g id="Artboard" transform="translate(-24.000000, -24.000000)">
            <g id="Page-1" transform="translate(28.000000, 25.000000)">
                <g id="FTC-icon">
                    <use fill="black" fill-opacity="1" filter="url(#filter-2)" xlink:href="#path-1"></use>
                    <use fill="#A10000" fill-rule="evenodd" xlink:href="#path-1"></use>
                </g>
                <path d="M379.367647,176.470995 C379.367647,212.003766 350.56259,240.808824 315.029818,240.808824 C279.496234,240.808824 250.691176,212.003766 250.691176,176.470995 C250.691176,140.938224 279.496234,112.132353 315.029818,112.132353 C350.56259,112.132353 379.367647,140.938224 379.367647,176.470995 Z" id="Stroke-8" stroke="#000000" fill="#000000"></path>
                <polygon id="Stroke-9" fill="#000000" points="373.852941 254.021072 252.017519 253.676471 120.176471 254.021072 207.243883 428.308824 252.017519 310.702597 293.760746 428.308824"></polygon>
                <path d="M235.985294,176.470995 C235.985294,212.003766 207.180237,240.808824 171.646652,240.808824 C136.113881,240.808824 107.308824,212.003766 107.308824,176.470995 C107.308824,140.938224 136.113881,112.132353 171.646652,112.132353 C207.180237,112.132353 235.985294,140.938224 235.985294,176.470995 Z" id="Stroke-1" stroke="#000000" fill="#000000"></path>
                <polygon id="Stroke-7" fill="#A10000" points="194.044118 373.161765 210.588235 373.161765 210.588235 336.397059 194.044118 336.397059"></polygon>
                <polygon id="Stroke-3" fill="#A10000" fill-rule="nonzero" points="166.490408 251.098214 162.774298 252.578257 201.953854 350.950789 241.853324 252.590026 238.146676 251.086445 201.987864 340.225682"></polygon>
            </g>
        </g>
    </g>
</svg>