<?xml version="1.0" encoding="UTF-8"?>
<svg width="508px" height="508px" viewBox="0 0 508 508" version="1.1" xmlns="http://www.w3.org/2000/svg" xmlns:xlink="http://www.w3.org/1999/xlink">
    <!-- Generator: Sketch 46.2 (44496) - http://www.bohemiancoding.com/sketch -->
    <title>Page 1</title>
    <desc>Created with Sketch.</desc>
    <defs>
        <circle id="path-1" cx="250" cy="250" r="250"></circle>
        <filter x="-1.4%" y="-1.0%" width="102.9%" height="102.9%" filterUnits="objectBoundingBox" id="filter-2">
            <feOffset dx="0" dy="2.5" in="SourceAlpha" result="shadowOffsetOuter1"></feOffset>
            <feGaussianBlur stdDeviation="2" in="shadowOffsetOuter1" result="shadowBlurOuter1"></feGaussianBlur>
            <feColorMatrix values="0 0 0 0 0   0 0 0 0 0   0 0 0 0 0  0 0 0 0.5 0" type="matrix" in="shadowBlurOuter1"></feColorMatrix>
        </filter>
    </defs>
    <g id="Page-1" stroke="none" stroke-width="1" fill="none" fill-rule="evenodd">
        <g id="Artboard" transform="translate(-35.000000, -24.000000)">
            <g id="Page-1" transform="translate(39.000000, 25.000000)">
                <g id="Group-3">
                    <g id="Our-Place-icon">
                        <use fill="black" fill-opacity="1" filter="url(#filter-2)" xlink:href="#path-1"></use>
                        <use fill="#A10000" fill-rule="evenodd" xlink:href="#path-1"></use>
                    </g>
                    <path d="M147.105955,180.71621 C147.105955,197.110985 150.809047,212.807126 158.113413,227.370556 L252.123865,442.224382 L344.151862,227.610283 C351.534944,212.983497 355.279106,197.206876 355.279106,180.71621 C355.279106,123.286126 308.585751,76.5624305 251.192103,76.5624305 C193.798454,76.5624305 147.105955,123.286126 147.105955,180.71621 Z" id="Fill-1" fill="#000000"></path>
                </g>
                <path d="M251.948103,113.970588 C214.951274,113.970588 184.852941,144.069775 184.852941,181.066603 C184.852941,218.063431 214.951274,248.161765 251.948103,248.161765 C288.944931,248.161765 319.044118,218.063431 319.044118,181.066603 C319.044118,144.069775 288.944931,113.970588 251.948103,113.970588" id="Fill-4" fill="#A10000"></path>
            </g>
        </g>
    </g>
</svg>