<?xml version="1.0" encoding="UTF-8"?>
<svg width="508px" height="508px" viewBox="0 0 508 508" version="1.1" xmlns="http://www.w3.org/2000/svg" xmlns:xlink="http://www.w3.org/1999/xlink">
    <!-- Generator: Sketch 46.2 (44496) - http://www.bohemiancoding.com/sketch -->
    <title>Page 1</title>
    <desc>Created with Sketch.</desc>
    <defs>
        <circle id="path-1" cx="250" cy="250" r="250"></circle>
        <filter x="-1.4%" y="-1.0%" width="102.9%" height="102.9%" filterUnits="objectBoundingBox" id="filter-2">
            <feOffset dx="0" dy="2.5" in="SourceAlpha" result="shadowOffsetOuter1"></feOffset>
            <feGaussianBlur stdDeviation="2" in="shadowOffsetOuter1" result="shadowBlurOuter1"></feGaussianBlur>
            <feColorMatrix values="0 0 0 0 0   0 0 0 0 0   0 0 0 0 0  0 0 0 0.5 0" type="matrix" in="shadowBlurOuter1"></feColorMatrix>
        </filter>
    </defs>
    <g id="Page-1" stroke="none" stroke-width="1" fill="none" fill-rule="evenodd">
        <g id="Artboard" transform="translate(-24.000000, -24.000000)">
            <g id="Page-1" transform="translate(28.000000, 25.000000)">
                <g id="Our-Trainer-icon">
                    <use fill="black" fill-opacity="1" filter="url(#filter-2)" xlink:href="#path-1"></use>
                    <use fill="#A10000" fill-rule="evenodd" xlink:href="#path-1"></use>
                </g>
                <path d="M329.044118,136.949023 C329.044118,180.09596 294.066548,215.073529 250.918624,215.073529 C207.771687,215.073529 172.794118,180.09596 172.794118,136.949023 C172.794118,93.8020868 207.771687,58.8235294 250.918624,58.8235294 C294.066548,58.8235294 329.044118,93.8020868 329.044118,136.949023 Z" id="Stroke-1" fill="#000000"></path>
                <polygon id="Fill-5" fill="#000000" points="244.485294 380.514706 259.191176 380.514706 259.191176 336.397059 244.485294 336.397059"></polygon>
                <polygon id="Stroke-8" fill="#000000" points="365.808824 230.203581 250.104171 441.176471 136.029412 229.779412"></polygon>
                <polyline id="Stroke-3" stroke="#A10000" stroke-width="4" points="204.044118 224.264706 248.668186 336.397059 294.117647 224.264706"></polyline>
                <polygon id="Stroke-7" stroke="#A10000" stroke-width="7" fill="#A10000" points="244.485294 380.514706 259.191176 380.514706 259.191176 336.397059 244.485294 336.397059"></polygon>
            </g>
        </g>
    </g>
</svg>